# xmcd
#
# Track frame offsets:
#	150
#	15067
#	30242
#	44762
#	72720
#	89262
#	107482
#	122512
#	144207
#	161287
#	174230
#	195270
#
# Disc length: 2870 seconds
#
# Revision: 2
# Processed by: cddbd v1.4PL0 Copyright (c) Steve Scherf et al.
# Submitted via: EasyCDDAExtractor 4.6.9.1
#
DISCID=850b340c
DTITLE=Sonny Boy Williamson - Keep It To Ourselves
DYEAR=1990
DGENRE=Blues
TTITLE0=The Sky Is Crying
TTITLE1=Slowly Walk Close To Me
TTITLE2=Once Upon A Time
TTITLE3=Don't Let Your Right Hand Know
TTITLE4=Movin' Out
TTITLE5=Coming Home To You Baby
TTITLE6=I Can't Understand
TTITLE7=Same Girl
TTITLE8=Gettin' Together
TTITLE9=Why Are You Crying?
TTITLE10=Girl Friends
TTITLE11=When The Lights Went Out
EXTD=ALCD 4787\n\nSubmitted 7/15/97\n[Jmccoy@efn.org]
EXTT0=
EXTT1=
EXTT2=
EXTT3=
EXTT4=
EXTT5=
EXTT6=
EXTT7=
EXTT8=
EXTT9=
EXTT10=
EXTT11=
PLAYORDER=
